<mxfile host="app.diagrams.net" agent="Mozilla/5.0 (Windows NT 10.0; Win64; x64) AppleWebKit/537.36 (KHTML, like Gecko) Chrome/138.0.0.0 Safari/537.36 Edg/138.0.0.0" version="28.0.4">
  <diagram name="Page-1" id="8rPsWBiPgR1p9Z0tsS2F">
    <mxGraphModel dx="1749" dy="2696" grid="1" gridSize="10" guides="1" tooltips="1" connect="1" arrows="1" fold="1" page="1" pageScale="1" pageWidth="850" pageHeight="1100" math="0" shadow="0">
      <root>
        <mxCell id="0" />
        <mxCell id="1" parent="0" />
        <mxCell id="0CcPAtf6RlM9wCup1yob-133" value="" style="edgeStyle=orthogonalEdgeStyle;rounded=0;orthogonalLoop=1;jettySize=auto;html=1;" edge="1" parent="1" source="0CcPAtf6RlM9wCup1yob-1" target="0CcPAtf6RlM9wCup1yob-132">
          <mxGeometry relative="1" as="geometry" />
        </mxCell>
        <mxCell id="0CcPAtf6RlM9wCup1yob-1" value="START" style="strokeWidth=2;html=1;shape=mxgraph.flowchart.start_1;whiteSpace=wrap;" vertex="1" parent="1">
          <mxGeometry x="370" y="-2160" width="100" height="60" as="geometry" />
        </mxCell>
        <mxCell id="0CcPAtf6RlM9wCup1yob-135" value="" style="edgeStyle=orthogonalEdgeStyle;rounded=0;orthogonalLoop=1;jettySize=auto;html=1;" edge="1" parent="1" source="0CcPAtf6RlM9wCup1yob-132" target="0CcPAtf6RlM9wCup1yob-134">
          <mxGeometry relative="1" as="geometry" />
        </mxCell>
        <mxCell id="0CcPAtf6RlM9wCup1yob-132" value="แสดงรายการสินค้า" style="whiteSpace=wrap;html=1;strokeWidth=2;" vertex="1" parent="1">
          <mxGeometry x="360" y="-2070" width="120" height="60" as="geometry" />
        </mxCell>
        <mxCell id="0CcPAtf6RlM9wCup1yob-153" value="" style="edgeStyle=orthogonalEdgeStyle;rounded=0;orthogonalLoop=1;jettySize=auto;html=1;" edge="1" parent="1" source="0CcPAtf6RlM9wCup1yob-134" target="0CcPAtf6RlM9wCup1yob-152">
          <mxGeometry relative="1" as="geometry" />
        </mxCell>
        <mxCell id="0CcPAtf6RlM9wCup1yob-134" value="เลือกสินค้า" style="whiteSpace=wrap;html=1;strokeWidth=2;" vertex="1" parent="1">
          <mxGeometry x="360" y="-1980" width="120" height="60" as="geometry" />
        </mxCell>
        <mxCell id="0CcPAtf6RlM9wCup1yob-154" style="edgeStyle=orthogonalEdgeStyle;rounded=0;orthogonalLoop=1;jettySize=auto;html=1;entryX=0.5;entryY=0;entryDx=0;entryDy=0;" edge="1" parent="1" source="0CcPAtf6RlM9wCup1yob-152" target="0CcPAtf6RlM9wCup1yob-158">
          <mxGeometry relative="1" as="geometry">
            <mxPoint x="530" y="-1770" as="targetPoint" />
          </mxGeometry>
        </mxCell>
        <mxCell id="0CcPAtf6RlM9wCup1yob-152" value="ประเภทสินค้า" style="rhombus;whiteSpace=wrap;html=1;strokeWidth=2;" vertex="1" parent="1">
          <mxGeometry x="380" y="-1900" width="80" height="80" as="geometry" />
        </mxCell>
        <mxCell id="0CcPAtf6RlM9wCup1yob-158" value="สินค้าประเภทนํ้า" style="shape=parallelogram;perimeter=parallelogramPerimeter;whiteSpace=wrap;html=1;fixedSize=1;" vertex="1" parent="1">
          <mxGeometry x="360" y="-1730" width="120" height="60" as="geometry" />
        </mxCell>
        <mxCell id="0CcPAtf6RlM9wCup1yob-168" value="" style="edgeStyle=orthogonalEdgeStyle;rounded=0;orthogonalLoop=1;jettySize=auto;html=1;" edge="1" parent="1" target="0CcPAtf6RlM9wCup1yob-167">
          <mxGeometry relative="1" as="geometry">
            <mxPoint x="420" y="-1670" as="sourcePoint" />
          </mxGeometry>
        </mxCell>
        <mxCell id="0CcPAtf6RlM9wCup1yob-175" value="" style="edgeStyle=orthogonalEdgeStyle;rounded=0;orthogonalLoop=1;jettySize=auto;html=1;" edge="1" parent="1" source="0CcPAtf6RlM9wCup1yob-167" target="0CcPAtf6RlM9wCup1yob-174">
          <mxGeometry relative="1" as="geometry" />
        </mxCell>
        <mxCell id="0CcPAtf6RlM9wCup1yob-167" value="รับสินค้าที่เลือก&lt;div&gt;ประเภทนํ้า&lt;/div&gt;" style="shape=parallelogram;perimeter=parallelogramPerimeter;whiteSpace=wrap;html=1;fixedSize=1;" vertex="1" parent="1">
          <mxGeometry x="360" y="-1630" width="120" height="60" as="geometry" />
        </mxCell>
        <mxCell id="0CcPAtf6RlM9wCup1yob-186" value="" style="edgeStyle=orthogonalEdgeStyle;rounded=0;orthogonalLoop=1;jettySize=auto;html=1;" edge="1" parent="1" source="0CcPAtf6RlM9wCup1yob-201" target="0CcPAtf6RlM9wCup1yob-185">
          <mxGeometry relative="1" as="geometry">
            <Array as="points">
              <mxPoint x="600" y="-1490" />
            </Array>
          </mxGeometry>
        </mxCell>
        <mxCell id="0CcPAtf6RlM9wCup1yob-174" value="โค้กกระป๋อง" style="rhombus;whiteSpace=wrap;html=1;" vertex="1" parent="1">
          <mxGeometry x="341.25" y="-1520" width="157.5" height="60" as="geometry" />
        </mxCell>
        <mxCell id="0CcPAtf6RlM9wCup1yob-179" value="" style="edgeStyle=orthogonalEdgeStyle;rounded=0;orthogonalLoop=1;jettySize=auto;html=1;" edge="1" parent="1" source="0CcPAtf6RlM9wCup1yob-220" target="0CcPAtf6RlM9wCup1yob-178">
          <mxGeometry relative="1" as="geometry" />
        </mxCell>
        <mxCell id="0CcPAtf6RlM9wCup1yob-189" style="edgeStyle=orthogonalEdgeStyle;rounded=0;orthogonalLoop=1;jettySize=auto;html=1;entryX=0.5;entryY=0;entryDx=0;entryDy=0;" edge="1" parent="1" source="0CcPAtf6RlM9wCup1yob-206" target="0CcPAtf6RlM9wCup1yob-187">
          <mxGeometry relative="1" as="geometry">
            <Array as="points">
              <mxPoint x="600" y="-1380" />
            </Array>
          </mxGeometry>
        </mxCell>
        <mxCell id="0CcPAtf6RlM9wCup1yob-209" style="edgeStyle=orthogonalEdgeStyle;rounded=0;orthogonalLoop=1;jettySize=auto;html=1;" edge="1" parent="1" source="0CcPAtf6RlM9wCup1yob-176" target="0CcPAtf6RlM9wCup1yob-206">
          <mxGeometry relative="1" as="geometry" />
        </mxCell>
        <mxCell id="0CcPAtf6RlM9wCup1yob-176" value="นํ้าเขียวกระป๋อง" style="rhombus;whiteSpace=wrap;html=1;" vertex="1" parent="1">
          <mxGeometry x="341.25" y="-1410" width="157.5" height="60" as="geometry" />
        </mxCell>
        <mxCell id="0CcPAtf6RlM9wCup1yob-181" value="" style="edgeStyle=orthogonalEdgeStyle;rounded=0;orthogonalLoop=1;jettySize=auto;html=1;" edge="1" parent="1" source="0CcPAtf6RlM9wCup1yob-222" target="0CcPAtf6RlM9wCup1yob-180">
          <mxGeometry relative="1" as="geometry" />
        </mxCell>
        <mxCell id="0CcPAtf6RlM9wCup1yob-192" style="edgeStyle=orthogonalEdgeStyle;rounded=0;orthogonalLoop=1;jettySize=auto;html=1;entryX=0.5;entryY=0;entryDx=0;entryDy=0;" edge="1" parent="1" source="0CcPAtf6RlM9wCup1yob-210" target="0CcPAtf6RlM9wCup1yob-190">
          <mxGeometry relative="1" as="geometry">
            <Array as="points">
              <mxPoint x="600" y="-1270" />
            </Array>
          </mxGeometry>
        </mxCell>
        <mxCell id="0CcPAtf6RlM9wCup1yob-212" style="edgeStyle=orthogonalEdgeStyle;rounded=0;orthogonalLoop=1;jettySize=auto;html=1;" edge="1" parent="1" source="0CcPAtf6RlM9wCup1yob-178" target="0CcPAtf6RlM9wCup1yob-210">
          <mxGeometry relative="1" as="geometry" />
        </mxCell>
        <mxCell id="0CcPAtf6RlM9wCup1yob-178" value="อเมริกาโน่" style="rhombus;whiteSpace=wrap;html=1;" vertex="1" parent="1">
          <mxGeometry x="341.25" y="-1300" width="157.5" height="60" as="geometry" />
        </mxCell>
        <mxCell id="0CcPAtf6RlM9wCup1yob-183" value="" style="edgeStyle=orthogonalEdgeStyle;rounded=0;orthogonalLoop=1;jettySize=auto;html=1;" edge="1" parent="1" source="0CcPAtf6RlM9wCup1yob-224">
          <mxGeometry relative="1" as="geometry">
            <mxPoint x="420.0833333333335" y="-1079.9682539682537" as="targetPoint" />
          </mxGeometry>
        </mxCell>
        <mxCell id="0CcPAtf6RlM9wCup1yob-198" style="edgeStyle=orthogonalEdgeStyle;rounded=0;orthogonalLoop=1;jettySize=auto;html=1;entryX=0.5;entryY=0;entryDx=0;entryDy=0;" edge="1" parent="1" source="0CcPAtf6RlM9wCup1yob-213" target="0CcPAtf6RlM9wCup1yob-195">
          <mxGeometry relative="1" as="geometry">
            <Array as="points">
              <mxPoint x="600" y="-1160" />
            </Array>
          </mxGeometry>
        </mxCell>
        <mxCell id="0CcPAtf6RlM9wCup1yob-215" style="edgeStyle=orthogonalEdgeStyle;rounded=0;orthogonalLoop=1;jettySize=auto;html=1;" edge="1" parent="1" source="0CcPAtf6RlM9wCup1yob-180" target="0CcPAtf6RlM9wCup1yob-213">
          <mxGeometry relative="1" as="geometry" />
        </mxCell>
        <mxCell id="0CcPAtf6RlM9wCup1yob-180" value="ลาเต้หวานเจี๊ยบ" style="rhombus;whiteSpace=wrap;html=1;" vertex="1" parent="1">
          <mxGeometry x="341.25" y="-1190" width="157.5" height="60" as="geometry" />
        </mxCell>
        <mxCell id="0CcPAtf6RlM9wCup1yob-185" value="ราคา 10 บสท" style="whiteSpace=wrap;html=1;" vertex="1" parent="1">
          <mxGeometry x="550" y="-1460" width="100" height="40" as="geometry" />
        </mxCell>
        <mxCell id="0CcPAtf6RlM9wCup1yob-187" value="ราคา 10 บสท" style="whiteSpace=wrap;html=1;" vertex="1" parent="1">
          <mxGeometry x="550" y="-1340" width="100" height="40" as="geometry" />
        </mxCell>
        <mxCell id="0CcPAtf6RlM9wCup1yob-190" value="ราคา 10 บสท" style="whiteSpace=wrap;html=1;" vertex="1" parent="1">
          <mxGeometry x="550" y="-1220" width="100" height="40" as="geometry" />
        </mxCell>
        <mxCell id="0CcPAtf6RlM9wCup1yob-195" value="ราคา 10 บสท" style="whiteSpace=wrap;html=1;" vertex="1" parent="1">
          <mxGeometry x="550" y="-1110" width="100" height="40" as="geometry" />
        </mxCell>
        <mxCell id="0CcPAtf6RlM9wCup1yob-202" value="" style="edgeStyle=orthogonalEdgeStyle;rounded=0;orthogonalLoop=1;jettySize=auto;html=1;" edge="1" parent="1" source="0CcPAtf6RlM9wCup1yob-174" target="0CcPAtf6RlM9wCup1yob-201">
          <mxGeometry relative="1" as="geometry">
            <mxPoint x="499" y="-1490" as="sourcePoint" />
            <mxPoint x="600" y="-1460" as="targetPoint" />
            <Array as="points" />
          </mxGeometry>
        </mxCell>
        <mxCell id="0CcPAtf6RlM9wCup1yob-201" value="จริง" style="text;html=1;align=center;verticalAlign=middle;whiteSpace=wrap;rounded=0;" vertex="1" parent="1">
          <mxGeometry x="520" y="-1505" width="60" height="30" as="geometry" />
        </mxCell>
        <mxCell id="0CcPAtf6RlM9wCup1yob-206" value="จริง" style="text;html=1;align=center;verticalAlign=middle;whiteSpace=wrap;rounded=0;" vertex="1" parent="1">
          <mxGeometry x="520" y="-1395" width="60" height="30" as="geometry" />
        </mxCell>
        <mxCell id="0CcPAtf6RlM9wCup1yob-210" value="จริง" style="text;html=1;align=center;verticalAlign=middle;whiteSpace=wrap;rounded=0;" vertex="1" parent="1">
          <mxGeometry x="520" y="-1285" width="60" height="30" as="geometry" />
        </mxCell>
        <mxCell id="0CcPAtf6RlM9wCup1yob-213" value="จริง" style="text;html=1;align=center;verticalAlign=middle;whiteSpace=wrap;rounded=0;" vertex="1" parent="1">
          <mxGeometry x="520" y="-1175" width="60" height="30" as="geometry" />
        </mxCell>
        <mxCell id="0CcPAtf6RlM9wCup1yob-217" value="" style="edgeStyle=orthogonalEdgeStyle;rounded=0;orthogonalLoop=1;jettySize=auto;html=1;" edge="1" parent="1" source="0CcPAtf6RlM9wCup1yob-174" target="0CcPAtf6RlM9wCup1yob-216">
          <mxGeometry relative="1" as="geometry">
            <mxPoint x="420" y="-1460" as="sourcePoint" />
            <mxPoint x="420" y="-1410" as="targetPoint" />
          </mxGeometry>
        </mxCell>
        <mxCell id="0CcPAtf6RlM9wCup1yob-219" style="edgeStyle=orthogonalEdgeStyle;rounded=0;orthogonalLoop=1;jettySize=auto;html=1;entryX=0.5;entryY=0;entryDx=0;entryDy=0;" edge="1" parent="1" source="0CcPAtf6RlM9wCup1yob-216" target="0CcPAtf6RlM9wCup1yob-176">
          <mxGeometry relative="1" as="geometry" />
        </mxCell>
        <mxCell id="0CcPAtf6RlM9wCup1yob-216" value="เท็จ" style="text;html=1;align=center;verticalAlign=middle;whiteSpace=wrap;rounded=0;" vertex="1" parent="1">
          <mxGeometry x="400" y="-1440" width="40" height="10" as="geometry" />
        </mxCell>
        <mxCell id="0CcPAtf6RlM9wCup1yob-221" value="" style="edgeStyle=orthogonalEdgeStyle;rounded=0;orthogonalLoop=1;jettySize=auto;html=1;" edge="1" parent="1" source="0CcPAtf6RlM9wCup1yob-176" target="0CcPAtf6RlM9wCup1yob-220">
          <mxGeometry relative="1" as="geometry">
            <mxPoint x="420" y="-1350" as="sourcePoint" />
            <mxPoint x="420" y="-1300" as="targetPoint" />
          </mxGeometry>
        </mxCell>
        <mxCell id="0CcPAtf6RlM9wCup1yob-220" value="เท็จ" style="text;html=1;align=center;verticalAlign=middle;whiteSpace=wrap;rounded=0;" vertex="1" parent="1">
          <mxGeometry x="400" y="-1330" width="40" height="10" as="geometry" />
        </mxCell>
        <mxCell id="0CcPAtf6RlM9wCup1yob-223" value="" style="edgeStyle=orthogonalEdgeStyle;rounded=0;orthogonalLoop=1;jettySize=auto;html=1;" edge="1" parent="1" source="0CcPAtf6RlM9wCup1yob-178" target="0CcPAtf6RlM9wCup1yob-222">
          <mxGeometry relative="1" as="geometry">
            <mxPoint x="420" y="-1240" as="sourcePoint" />
            <mxPoint x="420" y="-1190" as="targetPoint" />
          </mxGeometry>
        </mxCell>
        <mxCell id="0CcPAtf6RlM9wCup1yob-222" value="เท็จ" style="text;html=1;align=center;verticalAlign=middle;whiteSpace=wrap;rounded=0;" vertex="1" parent="1">
          <mxGeometry x="400" y="-1220" width="40" as="geometry" />
        </mxCell>
        <mxCell id="0CcPAtf6RlM9wCup1yob-225" value="" style="edgeStyle=orthogonalEdgeStyle;rounded=0;orthogonalLoop=1;jettySize=auto;html=1;" edge="1" parent="1" source="0CcPAtf6RlM9wCup1yob-180" target="0CcPAtf6RlM9wCup1yob-224">
          <mxGeometry relative="1" as="geometry">
            <mxPoint x="420" y="-1130" as="sourcePoint" />
            <mxPoint x="420" y="-1080" as="targetPoint" />
          </mxGeometry>
        </mxCell>
        <mxCell id="0CcPAtf6RlM9wCup1yob-224" value="เท็จ" style="text;html=1;align=center;verticalAlign=middle;whiteSpace=wrap;rounded=0;" vertex="1" parent="1">
          <mxGeometry x="400" y="-1110" width="40" height="10" as="geometry" />
        </mxCell>
        <mxCell id="0CcPAtf6RlM9wCup1yob-234" value="" style="edgeStyle=orthogonalEdgeStyle;rounded=0;orthogonalLoop=1;jettySize=auto;html=1;" edge="1" parent="1" source="0CcPAtf6RlM9wCup1yob-226" target="0CcPAtf6RlM9wCup1yob-233">
          <mxGeometry relative="1" as="geometry" />
        </mxCell>
        <mxCell id="0CcPAtf6RlM9wCup1yob-226" value="" style="ellipse;whiteSpace=wrap;html=1;" vertex="1" parent="1">
          <mxGeometry x="410" y="-1080" width="20" height="20" as="geometry" />
        </mxCell>
        <mxCell id="0CcPAtf6RlM9wCup1yob-298" style="edgeStyle=orthogonalEdgeStyle;rounded=0;orthogonalLoop=1;jettySize=auto;html=1;entryX=0.5;entryY=0;entryDx=0;entryDy=0;" edge="1" parent="1" source="0CcPAtf6RlM9wCup1yob-231" target="0CcPAtf6RlM9wCup1yob-280">
          <mxGeometry relative="1" as="geometry" />
        </mxCell>
        <mxCell id="0CcPAtf6RlM9wCup1yob-231" value="" style="ellipse;whiteSpace=wrap;html=1;aspect=fixed;" vertex="1" parent="1">
          <mxGeometry x="410" y="-1800" width="20" height="20" as="geometry" />
        </mxCell>
        <mxCell id="0CcPAtf6RlM9wCup1yob-325" value="" style="edgeStyle=orthogonalEdgeStyle;rounded=0;orthogonalLoop=1;jettySize=auto;html=1;" edge="1" parent="1" source="0CcPAtf6RlM9wCup1yob-233" target="0CcPAtf6RlM9wCup1yob-324">
          <mxGeometry relative="1" as="geometry" />
        </mxCell>
        <mxCell id="0CcPAtf6RlM9wCup1yob-233" value="แสดงราคาสิ้นค้าที่สั่ง" style="whiteSpace=wrap;html=1;" vertex="1" parent="1">
          <mxGeometry x="360" y="-1020" width="120" height="60" as="geometry" />
        </mxCell>
        <mxCell id="0CcPAtf6RlM9wCup1yob-279" style="edgeStyle=orthogonalEdgeStyle;rounded=0;orthogonalLoop=1;jettySize=auto;html=1;entryX=0.5;entryY=0;entryDx=0;entryDy=0;" edge="1" parent="1" source="0CcPAtf6RlM9wCup1yob-280" target="0CcPAtf6RlM9wCup1yob-283">
          <mxGeometry relative="1" as="geometry" />
        </mxCell>
        <mxCell id="0CcPAtf6RlM9wCup1yob-280" value="สินค้า&lt;div&gt;ประเภทขนม&lt;/div&gt;" style="shape=parallelogram;perimeter=parallelogramPerimeter;whiteSpace=wrap;html=1;fixedSize=1;" vertex="1" parent="1">
          <mxGeometry x="120" y="-1630" width="120" height="60" as="geometry" />
        </mxCell>
        <mxCell id="0CcPAtf6RlM9wCup1yob-281" value="" style="edgeStyle=orthogonalEdgeStyle;rounded=0;orthogonalLoop=1;jettySize=auto;html=1;" edge="1" parent="1" source="0CcPAtf6RlM9wCup1yob-316" target="0CcPAtf6RlM9wCup1yob-286">
          <mxGeometry relative="1" as="geometry" />
        </mxCell>
        <mxCell id="0CcPAtf6RlM9wCup1yob-282" value="" style="edgeStyle=orthogonalEdgeStyle;rounded=0;orthogonalLoop=1;jettySize=auto;html=1;" edge="1" parent="1" source="0CcPAtf6RlM9wCup1yob-297" target="0CcPAtf6RlM9wCup1yob-289">
          <mxGeometry relative="1" as="geometry" />
        </mxCell>
        <mxCell id="0CcPAtf6RlM9wCup1yob-283" value="เมล็ดถามตะวัน" style="rhombus;whiteSpace=wrap;html=1;" vertex="1" parent="1">
          <mxGeometry x="101.25" y="-1520" width="157.5" height="60" as="geometry" />
        </mxCell>
        <mxCell id="0CcPAtf6RlM9wCup1yob-284" value="" style="edgeStyle=orthogonalEdgeStyle;rounded=0;orthogonalLoop=1;jettySize=auto;html=1;" edge="1" parent="1" source="0CcPAtf6RlM9wCup1yob-320" target="0CcPAtf6RlM9wCup1yob-288">
          <mxGeometry relative="1" as="geometry" />
        </mxCell>
        <mxCell id="0CcPAtf6RlM9wCup1yob-285" value="" style="edgeStyle=orthogonalEdgeStyle;rounded=0;orthogonalLoop=1;jettySize=auto;html=1;" edge="1" parent="1" source="0CcPAtf6RlM9wCup1yob-295" target="0CcPAtf6RlM9wCup1yob-290">
          <mxGeometry relative="1" as="geometry" />
        </mxCell>
        <mxCell id="0CcPAtf6RlM9wCup1yob-286" value="ถั่วแปบ" style="rhombus;whiteSpace=wrap;html=1;" vertex="1" parent="1">
          <mxGeometry x="101.25" y="-1410" width="157.5" height="60" as="geometry" />
        </mxCell>
        <mxCell id="0CcPAtf6RlM9wCup1yob-299" style="edgeStyle=orthogonalEdgeStyle;rounded=0;orthogonalLoop=1;jettySize=auto;html=1;entryX=0;entryY=0.5;entryDx=0;entryDy=0;" edge="1" parent="1" source="0CcPAtf6RlM9wCup1yob-288" target="0CcPAtf6RlM9wCup1yob-226">
          <mxGeometry relative="1" as="geometry">
            <Array as="points">
              <mxPoint x="180" y="-1070" />
            </Array>
          </mxGeometry>
        </mxCell>
        <mxCell id="0CcPAtf6RlM9wCup1yob-306" style="edgeStyle=orthogonalEdgeStyle;rounded=0;orthogonalLoop=1;jettySize=auto;html=1;entryX=0.5;entryY=0;entryDx=0;entryDy=0;" edge="1" parent="1" source="0CcPAtf6RlM9wCup1yob-307" target="0CcPAtf6RlM9wCup1yob-291">
          <mxGeometry relative="1" as="geometry" />
        </mxCell>
        <mxCell id="0CcPAtf6RlM9wCup1yob-309" style="edgeStyle=orthogonalEdgeStyle;rounded=0;orthogonalLoop=1;jettySize=auto;html=1;entryX=1;entryY=0.5;entryDx=0;entryDy=0;" edge="1" parent="1" source="0CcPAtf6RlM9wCup1yob-288" target="0CcPAtf6RlM9wCup1yob-307">
          <mxGeometry relative="1" as="geometry" />
        </mxCell>
        <mxCell id="0CcPAtf6RlM9wCup1yob-288" value="จิ้นส้มหมก" style="rhombus;whiteSpace=wrap;html=1;" vertex="1" parent="1">
          <mxGeometry x="101.25" y="-1300" width="157.5" height="60" as="geometry" />
        </mxCell>
        <mxCell id="0CcPAtf6RlM9wCup1yob-289" value="ราคา 13 บาท" style="whiteSpace=wrap;html=1;" vertex="1" parent="1">
          <mxGeometry x="-140" y="-1465" width="100" height="45" as="geometry" />
        </mxCell>
        <mxCell id="0CcPAtf6RlM9wCup1yob-290" value="ราคา 20 บาท" style="whiteSpace=wrap;html=1;" vertex="1" parent="1">
          <mxGeometry x="-140" y="-1350" width="100" height="50" as="geometry" />
        </mxCell>
        <mxCell id="0CcPAtf6RlM9wCup1yob-291" value="ราคา 15 บาท" style="whiteSpace=wrap;html=1;" vertex="1" parent="1">
          <mxGeometry x="-140" y="-1240" width="100" height="50" as="geometry" />
        </mxCell>
        <mxCell id="0CcPAtf6RlM9wCup1yob-294" value="" style="edgeStyle=orthogonalEdgeStyle;rounded=0;orthogonalLoop=1;jettySize=auto;html=1;" edge="1" parent="1" source="0CcPAtf6RlM9wCup1yob-286" target="0CcPAtf6RlM9wCup1yob-295">
          <mxGeometry relative="1" as="geometry">
            <mxPoint x="101" y="-1330" as="sourcePoint" />
            <mxPoint x="-80" y="-1280" as="targetPoint" />
          </mxGeometry>
        </mxCell>
        <mxCell id="0CcPAtf6RlM9wCup1yob-295" value="จริง" style="text;html=1;align=center;verticalAlign=middle;whiteSpace=wrap;rounded=0;" vertex="1" parent="1">
          <mxGeometry x="-10" y="-1395" width="60" height="30" as="geometry" />
        </mxCell>
        <mxCell id="0CcPAtf6RlM9wCup1yob-296" value="" style="edgeStyle=orthogonalEdgeStyle;rounded=0;orthogonalLoop=1;jettySize=auto;html=1;" edge="1" parent="1" source="0CcPAtf6RlM9wCup1yob-283" target="0CcPAtf6RlM9wCup1yob-297">
          <mxGeometry relative="1" as="geometry">
            <mxPoint x="101" y="-1460" as="sourcePoint" />
            <mxPoint x="-80" y="-1420" as="targetPoint" />
          </mxGeometry>
        </mxCell>
        <mxCell id="0CcPAtf6RlM9wCup1yob-297" value="จริง" style="text;html=1;align=center;verticalAlign=middle;whiteSpace=wrap;rounded=0;" vertex="1" parent="1">
          <mxGeometry x="-10" y="-1505" width="60" height="30" as="geometry" />
        </mxCell>
        <mxCell id="0CcPAtf6RlM9wCup1yob-307" value="จริง" style="text;html=1;align=center;verticalAlign=middle;whiteSpace=wrap;rounded=0;" vertex="1" parent="1">
          <mxGeometry x="-10" y="-1285" width="60" height="30" as="geometry" />
        </mxCell>
        <mxCell id="0CcPAtf6RlM9wCup1yob-317" value="" style="edgeStyle=orthogonalEdgeStyle;rounded=0;orthogonalLoop=1;jettySize=auto;html=1;" edge="1" parent="1" source="0CcPAtf6RlM9wCup1yob-283" target="0CcPAtf6RlM9wCup1yob-316">
          <mxGeometry relative="1" as="geometry">
            <mxPoint x="180" y="-1460" as="sourcePoint" />
            <mxPoint x="180" y="-1410" as="targetPoint" />
          </mxGeometry>
        </mxCell>
        <mxCell id="0CcPAtf6RlM9wCup1yob-316" value="เท็จ" style="text;html=1;align=center;verticalAlign=middle;whiteSpace=wrap;rounded=0;" vertex="1" parent="1">
          <mxGeometry x="167.5" y="-1440" width="25" height="15" as="geometry" />
        </mxCell>
        <mxCell id="0CcPAtf6RlM9wCup1yob-321" value="" style="edgeStyle=orthogonalEdgeStyle;rounded=0;orthogonalLoop=1;jettySize=auto;html=1;" edge="1" parent="1" source="0CcPAtf6RlM9wCup1yob-286" target="0CcPAtf6RlM9wCup1yob-320">
          <mxGeometry relative="1" as="geometry">
            <mxPoint x="180" y="-1350" as="sourcePoint" />
            <mxPoint x="180" y="-1300" as="targetPoint" />
          </mxGeometry>
        </mxCell>
        <mxCell id="0CcPAtf6RlM9wCup1yob-320" value="เท็จ" style="text;html=1;align=center;verticalAlign=middle;whiteSpace=wrap;rounded=0;" vertex="1" parent="1">
          <mxGeometry x="167.5" y="-1330" width="25" height="15" as="geometry" />
        </mxCell>
        <mxCell id="0CcPAtf6RlM9wCup1yob-327" value="" style="edgeStyle=orthogonalEdgeStyle;rounded=0;orthogonalLoop=1;jettySize=auto;html=1;" edge="1" parent="1" source="0CcPAtf6RlM9wCup1yob-324" target="0CcPAtf6RlM9wCup1yob-326">
          <mxGeometry relative="1" as="geometry" />
        </mxCell>
        <mxCell id="0CcPAtf6RlM9wCup1yob-324" value="รวมราคาสินค้า" style="whiteSpace=wrap;html=1;" vertex="1" parent="1">
          <mxGeometry x="360" y="-910" width="120" height="60" as="geometry" />
        </mxCell>
        <mxCell id="0CcPAtf6RlM9wCup1yob-329" value="" style="edgeStyle=orthogonalEdgeStyle;rounded=0;orthogonalLoop=1;jettySize=auto;html=1;" edge="1" parent="1" source="0CcPAtf6RlM9wCup1yob-326" target="0CcPAtf6RlM9wCup1yob-328">
          <mxGeometry relative="1" as="geometry" />
        </mxCell>
        <mxCell id="0CcPAtf6RlM9wCup1yob-326" value="จำนวนเงิน" style="rhombus;whiteSpace=wrap;html=1;" vertex="1" parent="1">
          <mxGeometry x="380" y="-800" width="80" height="80" as="geometry" />
        </mxCell>
        <mxCell id="0CcPAtf6RlM9wCup1yob-331" value="" style="edgeStyle=orthogonalEdgeStyle;rounded=0;orthogonalLoop=1;jettySize=auto;html=1;" edge="1" parent="1" source="0CcPAtf6RlM9wCup1yob-328" target="0CcPAtf6RlM9wCup1yob-330">
          <mxGeometry relative="1" as="geometry" />
        </mxCell>
        <mxCell id="0CcPAtf6RlM9wCup1yob-328" value="แสดงสินค้าและยอดรวม" style="whiteSpace=wrap;html=1;" vertex="1" parent="1">
          <mxGeometry x="360" y="-670" width="120" height="60" as="geometry" />
        </mxCell>
        <mxCell id="0CcPAtf6RlM9wCup1yob-335" style="edgeStyle=orthogonalEdgeStyle;rounded=0;orthogonalLoop=1;jettySize=auto;html=1;" edge="1" parent="1" source="0CcPAtf6RlM9wCup1yob-330" target="0CcPAtf6RlM9wCup1yob-334">
          <mxGeometry relative="1" as="geometry" />
        </mxCell>
        <mxCell id="0CcPAtf6RlM9wCup1yob-330" value="ชำระเงินตามจำนวน" style="whiteSpace=wrap;html=1;" vertex="1" parent="1">
          <mxGeometry x="360" y="-560" width="120" height="60" as="geometry" />
        </mxCell>
        <mxCell id="0CcPAtf6RlM9wCup1yob-334" value="END" style="ellipse;whiteSpace=wrap;html=1;" vertex="1" parent="1">
          <mxGeometry x="360" y="-450" width="120" height="80" as="geometry" />
        </mxCell>
      </root>
    </mxGraphModel>
  </diagram>
</mxfile>
